<svg id="Layer_2" data-name="Layer 2" xmlns="http://www.w3.org/2000/svg" viewBox="0 0 536 536"><defs><style>.cls-1{fill:#fff;}.cls-2,.cls-4,.cls-6,.cls-8{fill:none;}.cls-2,.cls-3{stroke:#ffe36e;}.cls-2,.cls-3,.cls-4,.cls-5,.cls-6,.cls-7{stroke-miterlimit:10;}.cls-3{fill:#ffe36e;}.cls-4,.cls-5{stroke:#ff6969;}.cls-5{fill:#ff6969;}.cls-6,.cls-7{stroke:#6cceff;}.cls-7{fill:#6cceff;}.cls-8{stroke:#000;stroke-linecap:round;stroke-linejoin:round;stroke-width:12px;}</style></defs><circle class="cls-1" cx="268" cy="268" r="268"/><g id="Layer_3" data-name="Layer 3"><path class="cls-2" d="M646.15,453.82c-4.44,2.3-6.22,3.22-14.57,13.18-1.6,1.91-12.08,7.5-12.08,7.5" transform="translate(-292 -255)"/><path class="cls-3" d="M711.77,414.18c-8.26-15.93-26.5-22.87-42-14.82-28.42,13.61-23.58,54.46-23.58,54.46s21.51,18.7,53.49,3.25C718.73,447.18,720,430.12,711.77,414.18Zm-14.06,29.93c-4.24,2-8.45,2-9.39,0s1.72-5.24,6-7.25,8.45-2,9.39,0S702,442.1,697.71,444.11Z" transform="translate(-292 -255)"/><path class="cls-4" d="M617,450c0,5,0,7,5,19s3,30,3,30" transform="translate(-292 -255)"/><path class="cls-5" d="M612,373.5c-18,0-32.5,13-32.5,30.5-1,31.5,37.5,46,37.5,46s26.5-10.5,27.5-46C644.5,382.5,630,373.5,612,373.5Zm-23.5,38c-1.93,0-6-5.58-6-10s4.07-10,6-10c1.07,0,.65,1.72,0,4a20,20,0,0,0,0,9.84C589.3,408.51,589.86,411.5,588.5,411.5Z" transform="translate(-292 -255)"/><path class="cls-6" d="M620.19,491.14s1.16-18.07,8.16-29,7.35-12.92,8.22-17.84" transform="translate(-292 -255)"/><path class="cls-7" d="M617.47,394.2c-5.18,35.13,19.1,50.07,19.1,50.07s40.43-7.6,44.91-38.8c3-17.23-9-32.56-26.71-35.67S621.2,373,617.47,394.2Z" transform="translate(-292 -255)"/></g><path class="cls-8" d="M570,536.27s-34,18-55,8c-20.35-14-36-54,1-85,25-18,73.46-22.45,96,1,23.05,24,11.05,52,4,63-8.5,13.5-26,15-26,15s20,9,19,29-26,33-42,34-37,1-53-16" transform="translate(-292 -255)"/><path class="cls-8" d="M559.74,474s4,70-1,98" transform="translate(-292 -255)"/></svg>